<?xml version="1.0" encoding="UTF-8"?>
<svg version="1.1" xmlns="http://www.w3.org/2000/svg" width="253" height="184">
<path d="M0 0 C83.49 0 166.98 0 253 0 C253 60.72 253 121.44 253 184 C169.51 184 86.02 184 0 184 C0 123.28 0 62.56 0 0 Z " fill="#010101" transform="translate(0,0)"/>
<path d="M0 0 C1.1096576 3.32897281 0.966459 5.57137558 0.8125 9.0625 C0.7565936 19.11447066 4.0277732 25.93753053 11 33 C13.4959357 35.1058192 16.11795118 36.97029252 18.8125 38.8125 C19.55024658 39.32603027 20.28799316 39.83956055 21.0480957 40.36865234 C26.80923739 44.32176641 32.75902271 47.87030551 38.81567383 51.34643555 C53.33469551 59.74490808 70.53614155 70.23757453 76 87 C77.21197442 98.54194242 75.08581615 107.76696684 68 117 C66.37347684 118.70586575 64.70993434 120.3777546 63 122 C62.443125 122.598125 61.88625 123.19625 61.3125 123.8125 C60 125 60 125 58 125 C58.268125 124.360625 58.53625 123.72125 58.8125 123.0625 C59.204375 122.051875 59.59625 121.04125 60 120 C60.26425781 119.35675781 60.52851563 118.71351563 60.80078125 118.05078125 C63.75955191 110.24018762 64.26430554 102.75679834 61.4375 94.8125 C54.70420455 80.0411875 37.48372054 69.95142158 23.625 62.625 C13.92346414 57.37662814 4.05200049 50.53037168 -3 42 C-3.52464844 41.37351563 -4.04929687 40.74703125 -4.58984375 40.1015625 C-9.46935016 33.04587733 -9.02497771 24.21171693 -8 16 C-6.59030406 9.83168578 -4.45366598 4.61272548 0 0 Z " fill="#F5F5F5" transform="translate(101,19)"/>
<path d="M0 0 C2.875 2.0625 2.875 2.0625 5 5 C5.50951861 9.14893725 5.54666957 12.56199608 3 16 C0.30412197 18.09679403 -1.092944 17.99510821 -4.5625 17.8125 C-8 17 -8 17 -9.9375 15.9375 C-11.68507136 12.75075223 -11.51808302 9.49706037 -11 6 C-8.41524729 0.47802831 -6.07810512 -0.71507119 0 0 Z " fill="#0F0F0F" transform="translate(121,150)"/>
<path d="M0 0 C3.1874661 3.1874661 3.07670346 6.84720936 3.25 11.1875 C3.1675 12.445625 3.085 13.70375 3 15 C-0.71013399 17.47342266 -2.61060262 17.38503486 -7 17 C-10.1850357 15.23984869 -10.83296972 14.50109084 -12 11 C-12.3468602 7.18453778 -12.53366895 4.86721204 -10.5 1.5625 C-6.79176299 -0.75514813 -4.33579006 -0.41959259 0 0 Z " fill="#121212" transform="translate(167,151)"/>
<path d="M0 0 C2.81869032 2.81869032 4.91663102 5.15571177 7.1875 8.3125 C10.40787024 12.54798695 13.97614915 15.58546984 18.27734375 18.6875 C18.84582031 19.120625 19.41429688 19.55375 20 20 C20 20.33 20 20.66 20 21 C18.741875 20.855625 17.48375 20.71125 16.1875 20.5625 C10.79832245 19.9617955 5.40128355 19.47859474 0 19 C0 12.73 0 6.46 0 0 Z " fill="#E5E5E5" transform="translate(87,122)"/>
<path d="M0 0 C0.66 0 1.32 0 2 0 C2.66 2.97 3.32 5.94 4 9 C5.49403054 6.01193893 6.79310745 3.10343799 8 0 C9.32 0.33 10.64 0.66 12 1 C12.66 3.97 13.32 6.94 14 10 C14.99 6.7 15.98 3.4 17 0 C17.66 0 18.32 0 19 0 C18.54775239 5.91492272 17.8417395 11.35199888 16 17 C15.01 17 14.02 17 13 17 C12.01 13.7 11.02 10.4 10 7 C8.33094759 10.33810482 7.1258614 13.46157845 6 17 C5.01 17 4.02 17 3 17 C2.49453964 14.91798472 1.99583165 12.83432933 1.5 10.75 C1.2215625 9.58984375 0.943125 8.4296875 0.65625 7.234375 C0 4 0 4 0 0 Z " fill="#C6C6C6" transform="translate(131,151)"/>
<path d="M0 0 C4 1 4 1 5.703125 3.28515625 C6.21359375 4.20167969 6.7240625 5.11820313 7.25 6.0625 C8.03117188 7.44115234 8.03117188 7.44115234 8.828125 8.84765625 C9.21484375 9.55792969 9.6015625 10.26820313 10 11 C10.33 7.37 10.66 3.74 11 0 C11.66 0 12.32 0 13 0 C13 5.61 13 11.22 13 17 C9.33838422 15.77946141 8.83729526 14.63217696 6.8125 11.4375 C6.28269531 10.61121094 5.75289062 9.78492188 5.20703125 8.93359375 C4.80871094 8.29550781 4.41039062 7.65742188 4 7 C3.67 10.3 3.34 13.6 3 17 C2.01 17 1.02 17 0 17 C0 11.39 0 5.78 0 0 Z " fill="#C2C2C2" transform="translate(193,151)"/>
<path d="M0 0 C2.875 2.0625 2.875 2.0625 5 5 C5.50951861 9.14893725 5.54666957 12.56199608 3 16 C0.30412197 18.09679403 -1.092944 17.99510821 -4.5625 17.8125 C-8 17 -8 17 -9.9375 15.9375 C-11.68507136 12.75075223 -11.51808302 9.49706037 -11 6 C-8.41524729 0.47802831 -6.07810512 -0.71507119 0 0 Z M-7.875 4.125 C-9.53577671 6.89296119 -9.38805206 8.83090818 -9 12 C-7.62073227 14.34261608 -7.62073227 14.34261608 -6 16 C-1.65815798 15.81535634 -1.65815798 15.81535634 2 14 C2.19941868 11.93227266 2.19941868 11.93227266 2.1875 9.5625 C2.20167969 8.75941406 2.21585938 7.95632812 2.23046875 7.12890625 C2.20162356 4.78369367 2.20162356 4.78369367 0 3 C-3.10347254 2.66984335 -5.15781176 2.49468706 -7.875 4.125 Z " fill="#D8D8D8" transform="translate(121,150)"/>
<path d="M0 0 C2 2 2 2 2 5 C1.34 5 0.68 5 0 5 C-0.33 4.34 -0.66 3.68 -1 3 C-2.99954746 2.95745644 -5.00041636 2.95919217 -7 3 C-8.89885096 4.89885096 -8.12367506 7.57247903 -8.1328125 10.08984375 C-8.11686861 12.08634367 -8.11686861 12.08634367 -7 14 C-4.69 14 -2.38 14 0 14 C0.33 12.68 0.66 11.36 1 10 C-0.65 10 -2.3 10 -4 10 C-4 9.34 -4 8.68 -4 8 C-1.69 8 0.62 8 3 8 C3.1875 11.375 3.1875 11.375 3 15 C-0.71013399 17.47342266 -2.61060262 17.38503486 -7 17 C-10.1850357 15.23984869 -10.83296972 14.50109084 -12 11 C-12.3468602 7.18453778 -12.53366895 4.86721204 -10.5 1.5625 C-6.79176299 -0.75514813 -4.33579006 -0.41959259 0 0 Z " fill="#C8C8C8" transform="translate(167,151)"/>
<path d="M0 0 C3.40990297 0.487129 4.51618402 1.71945396 6.625 4.375 C6.625 5.035 6.625 5.695 6.625 6.375 C5.635 6.375 4.645 6.375 3.625 6.375 C3.295 5.715 2.965 5.055 2.625 4.375 C0.975 4.375 -0.675 4.375 -2.375 4.375 C-2.705 5.365 -3.035 6.355 -3.375 7.375 C-1.35677083 7.83072917 0.66145833 8.28645833 2.6796875 8.7421875 C4.625 9.375 4.625 9.375 6.625 11.375 C6.29528521 14.67214793 6.0023161 15.9976839 3.625 18.375 C-2.54675573 18.9360687 -2.54675573 18.9360687 -5.3125 17.0625 C-6.375 15.375 -6.375 15.375 -6.375 12.375 C-5.385 12.705 -4.395 13.035 -3.375 13.375 C-3.375 14.035 -3.375 14.695 -3.375 15.375 C-1.065 15.375 1.245 15.375 3.625 15.375 C3.955 14.055 4.285 12.735 4.625 11.375 C3.531875 11.271875 2.43875 11.16875 1.3125 11.0625 C-2.375 10.375 -2.375 10.375 -4.375 9.125 C-5.375 7.375 -5.375 7.375 -5.1875 4.8125 C-4.1333554 1.6500662 -3.34991621 0.52893414 0 0 Z " fill="#DEDEDE" transform="translate(78.375,149.625)"/>
<path d="M0 0 C0.66 0 1.32 0 2 0 C2 2.31 2 4.62 2 7 C4.97 7 7.94 7 11 7 C11 4.69 11 2.38 11 0 C11.66 0 12.32 0 13 0 C13 5.61 13 11.22 13 17 C12.34 17 11.68 17 11 17 C11 14.36 11 11.72 11 9 C8.36 9 5.72 9 3 9 C3 11.64 3 14.28 3 17 C2.01 17 1.02 17 0 17 C0 11.39 0 5.78 0 0 Z " fill="#D1D1D1" transform="translate(91,151)"/>
<path d="M0 0 C3.63 0 7.26 0 11 0 C11 0.66 11 1.32 11 2 C8.36 2 5.72 2 3 2 C3 3.65 3 5.3 3 7 C5.31 7 7.62 7 10 7 C10 7.66 10 8.32 10 9 C7.36 9 4.72 9 2 9 C2 10.98 2 12.96 2 15 C4.97 15 7.94 15 11 15 C11 15.66 11 16.32 11 17 C7.37 17 3.74 17 0 17 C0 11.39 0 5.78 0 0 Z " fill="#CCCCCC" transform="translate(176,151)"/>
<path d="M0 0 C3.96 0.33 7.92 0.66 12 1 C11.67 5.95 11.34 10.9 11 16 C8.25319946 14.62659973 7.90822762 13.01261743 6.625 10.25 C4.77564427 6.41958367 2.86571084 3.18412316 0 0 Z " fill="#ECECEC" transform="translate(161,19)"/>
<path d="M0 0 C0.66 0 1.32 0 2 0 C2.33872513 1.41538717 2.67074624 2.83237963 3 4.25 C3.185625 5.03890625 3.37125 5.8278125 3.5625 6.640625 C4 9 4 9 4 13 C4.66 13 5.32 13 6 13 C6 14.32 6 15.64 6 17 C5.01 17 4.02 17 3 17 C2.49453964 14.91798472 1.99583165 12.83432933 1.5 10.75 C1.2215625 9.58984375 0.943125 8.4296875 0.65625 7.234375 C0 4 0 4 0 0 Z " fill="#D0D0D0" transform="translate(131,151)"/>
<path d="M0 0 C3.9760803 -0.46233492 5.56851204 -0.30954571 8.875 2.0625 C11.47048413 5.65037512 11.4247346 7.6677071 11 12 C10.01 12 9.02 12 8 12 C7.67 9.69 7.34 7.38 7 5 C5.5459375 4.5978125 5.5459375 4.5978125 4.0625 4.1875 C3.051875 3.795625 2.04125 3.40375 1 3 C0.67 2.01 0.34 1.02 0 0 Z " fill="#A5A5A5" transform="translate(115,150)"/>
<path d="M0 0 C1.65 0 3.3 0 5 0 C5.33 0.99 5.66 1.98 6 3 C6.66 3.33 7.32 3.66 8 4 C7.67 4.66 7.34 5.32 7 6 C4.36 5.34 1.72 4.68 -1 4 C-0.67 2.68 -0.34 1.36 0 0 Z " fill="#1B1B1B" transform="translate(76,153)"/>
<path d="M0 0 C3.4847778 0.40520672 4.54293135 1.61193207 6.6875 4.3125 C6.6875 4.9725 6.6875 5.6325 6.6875 6.3125 C5.6975 6.3125 4.7075 6.3125 3.6875 6.3125 C3.3575 5.6525 3.0275 4.9925 2.6875 4.3125 C-0.35636724 4.23023332 -2.38425348 4.33641783 -5.3125 5.3125 C-2.93376866 0.39645522 -2.93376866 0.39645522 0 0 Z " fill="#AAAAAA" transform="translate(78.3125,149.6875)"/>
<path d="M0 0 C2 3 2 3 1.7578125 5.69921875 C1.54898438 6.68535156 1.34015625 7.67148438 1.125 8.6875 C0.81949219 10.17830078 0.81949219 10.17830078 0.5078125 11.69921875 C0.34023437 12.45847656 0.17265625 13.21773437 0 14 C-0.33 13.34 -0.66 12.68 -1 12 C-1.66 12 -2.32 12 -3 12 C-2.01 8.04 -1.02 4.08 0 0 Z " fill="#ACACAC" transform="translate(138,152)"/>
<path d="M0 0 C2.31 0 4.62 0 7 0 C7 2.31 7 4.62 7 7 C5.35 7.33 3.7 7.66 2 8 C2.66 7.34 3.32 6.68 4 6 C4.6425235 3.93125966 4.6425235 3.93125966 5 2 C3.35 2 1.7 2 0 2 C0 1.34 0 0.68 0 0 Z " fill="#D6D6D6" transform="translate(163,159)"/>
<path d="M0 0 C0.99 0.33 1.98 0.66 3 1 C3 1.66 3 2.32 3 3 C5.31 3.66 7.62 4.32 10 5 C10 5.33 10 5.66 10 6 C3.539801 6.36567164 3.539801 6.36567164 1.0625 4.6875 C0 3 0 3 0 0 Z " fill="#BFBFBF" transform="translate(72,162)"/>
<path d="M0 0 C0.99 0.33 1.98 0.66 3 1 C3 1.99 3 2.98 3 4 C2.34 4 1.68 4 1 4 C1 7.96 1 11.92 1 16 C0.67 16 0.34 16 0 16 C0 10.72 0 5.44 0 0 Z " fill="#F4F4F4" transform="translate(194,151)"/>
<path d="M0 0 C1.10370043 3.3111013 0.92673641 5.24748949 0.5625 8.6875 C0.46066406 9.68136719 0.35882813 10.67523438 0.25390625 11.69921875 C0.12822266 12.83810547 0.12822266 12.83810547 0 14 C-0.33 14 -0.66 14 -1 14 C-1.33 11.36 -1.66 8.72 -2 6 C-2.99 6.495 -2.99 6.495 -4 7 C-2.92598892 4.08482708 -2.22189824 2.22189824 0 0 Z " fill="#BBBBBB" transform="translate(101,19)"/>
<path d="M0 0 C2.25245881 2.68841859 3.88213958 4.64641875 5 8 C4.34 8.66 3.68 9.32 3 10 C0 5.25 0 5.25 0 3 C-0.66 2.67 -1.32 2.34 -2 2 C-1.34 2 -0.68 2 0 2 C0 1.34 0 0.68 0 0 Z " fill="#C4C4C4" transform="translate(197,153)"/>
<path d="M0 0 C4.51720311 -0.36625971 4.51720311 -0.36625971 6.8125 1.375 C8 3 8 3 8 5 C7.01 5 6.02 5 5 5 C4.34 4.01 3.68 3.02 3 2 C2.01 1.34 1.02 0.68 0 0 Z " fill="#C8C8C8" transform="translate(77,151)"/>
</svg>
